# xmcd CD database file
#
# Track frame offsets:
#	150
#	22242
#	42710
#	60390
#	87332
#	103937
#	128435
#	147707
#	171442
#	203007
#
# Disc length: 3038 seconds
#
# Revision: 1
# Processed by: cddbd v1.5.2PL0 Copyright (c) Steve Scherf et al.
# Submitted via: CDex 1.70beta2
#
DISCID=950bdc0a
DTITLE=大澤誉志幸 - Collage
DYEAR=1994
DGENRE=Rock
TTITLE0=1／2の神話
TTITLE1=ラ・ヴィアンローズ
TTITLE2=晴れのちBlue Boy
TTITLE3=真夏の夜にタンゴ
TTITLE4=おまえにチェックイン
TTITLE5=時代遅れの恋心
TTITLE6=プライヴェートホテル
TTITLE7=Just Feelin’Groove
TTITLE8=No No サーキュレーション
TTITLE9=ガラス越しに消えた夏
EXTD=YEAR: 1994
EXTT0=
EXTT1=
EXTT2=
EXTT3=
EXTT4=
EXTT5=
EXTT6=
EXTT7=
EXTT8=
EXTT9=
PLAYORDER=
